<?xml version="1.0" standalone="no"?>
<!DOCTYPE svg PUBLIC "-//W3C//DTD SVG 20010904//EN"
 "http://www.w3.org/TR/2001/REC-SVG-20010904/DTD/svg10.dtd">
<svg version="1.0" xmlns="http://www.w3.org/2000/svg"
 width="867.000000pt" height="1280.000000pt" viewBox="0 0 867.000000 1280.000000"
 preserveAspectRatio="xMidYMid meet">
<metadata>
Created by potrace 1.15, written by Peter Selinger 2001-2017
</metadata>
<g transform="translate(0.000000,1280.000000) scale(0.100000,-0.100000)"
fill="#000000" stroke="none">
<path d="M4035 12789 c-1307 -96 -2478 -756 -3242 -1829 -505 -709 -794 -1614
-793 -2482 1 -571 180 -1221 531 -1928 132 -266 234 -440 536 -918 549 -870
658 -1053 828 -1387 262 -516 391 -902 474 -1417 22 -140 49 -205 109 -273 42
-47 108 -93 172 -121 44 -18 91 -19 1680 -22 1194 -2 1651 0 1695 8 138 27
265 133 311 262 9 24 26 111 39 193 114 719 364 1330 922 2255 55 91 210 343
345 560 292 471 371 607 487 839 358 717 540 1373 541 1949 1 738 -212 1518
-588 2162 -290 496 -689 944 -1148 1291 -373 281 -824 515 -1264 657 -524 169
-1102 240 -1635 201z"/>
<path d="M2589 1930 c-176 -30 -282 -215 -219 -382 25 -68 84 -132 148 -161
l47 -22 1755 0 1755 0 45 23 c224 117 219 420 -9 526 l-46 21 -1715 1 c-943 1
-1736 -2 -1761 -6z"/>
<path d="M2544 908 c-54 -17 -125 -80 -158 -138 -27 -49 -31 -64 -31 -135 0
-70 4 -87 30 -133 32 -59 66 -91 129 -125 40 -21 53 -22 430 -27 l390 -5 12
-47 c16 -66 68 -151 117 -194 23 -20 71 -51 107 -68 l65 -31 700 0 700 0 65
31 c36 17 83 47 105 67 49 43 103 130 119 194 l12 48 370 5 c349 5 371 6 415
26 56 26 111 82 140 142 31 63 31 171 0 234 -27 57 -79 111 -134 141 l-42 22
-1755 2 c-1162 1 -1766 -2 -1786 -9z"/>
</g>
</svg>
